<svg xmlns="http://www.w3.org/2000/svg" xmlns:xlink="http://www.w3.org/1999/xlink" version="1.1" width="27" height="23" viewBox="0 0 27 23">
  <defs>
    <mask id="unchecked_mask">
      <rect width="100%" height="100%" fill="white"/>
      <path d="M20 2c.542 0 1 .458 1 1v17c0 .542-.458 1-1 1H3c-.542 0-1-.458-1-1V3c0-.542.458-1 1-1h17m0-2H3C1.35 0 0 1.35 0 3v17c0 1.65 1.35 3 3 3h17c1.65 0 3-1.35 3-3V3c0-1.65-1.35-3-3-3z"/>
    </mask>
    <symbol id="unchecked">
      <rect fill="white" width="100%" height="100%" mask="url(#unchecked_mask)"/>
    </symbol>
  </defs>
  <use xlink:href="#unchecked" x="0" y="0"/>
</svg>
