<svg  xmlns="http://www.w3.org/2000/svg" xmlns:xlink="http://www.w3.org/1999/xlink" version="1.1" width="217" height="17" viewBox="0 0 217 17">
  <defs>
    <!-- Исходный символ (иконка icon-search) -->
    <symbol id="search-icon">
      <path d="M17 15.586l-3.542-3.542A7.465 7.465 0 0 0 15 7.5 7.5 7.5 0 1 0 7.5 15c1.71 0 3.282-.579 4.544-1.542L15.586 17 17 15.586zM2 7.5C2 4.467 4.467 2 7.5 2 10.532 2 13 4.467 13 7.5c0 3.032-2.468 5.5-5.5 5.5A5.506 5.506 0 0 1 2 7.5z"/>
    </symbol>
  </defs>
  <!-- иконка с opacity=0.3 (серая лупа) -->
  <use xlink:href="#search-icon" x="0" y="0" fill="#ffffff" fill-opacity="0.3"/>
  <!-- исходная иконка (белая лупа) -->
  <use xlink:href="#search-icon" x="100" y="0" fill="#ffffff"/>
  <!-- красная иконка (красная лупа) -->
  <use xlink:href="#search-icon" x="200" y="0" fill="#ee3643"/>
</svg>